<svg xmlns="http://www.w3.org/2000/svg" viewBox="0 0 400 400" width="400" height="400" role="img" class="kape-doodle-success" aria-label="A takeaway cup with a name scrawled on the sleeve and a receipt tucked under the lid, marked with a check">
  <title>Success</title>
  <desc>MIT (c) BaryoDev. Generated from the Kapehan design canvas, do not edit by hand.</desc>
  <defs><pattern id="hs5" width="8" height="8" patternUnits="userSpaceOnUse" patternTransform="rotate(45)"><line x1="0" y1="0" x2="0" y2="8" stroke="#A08F7D" stroke-width="1.4" style="opacity:var(--hatch-op,.5)"></line></pattern></defs>
  <g id="dd-success">
    <g stroke="none">
      <path d="M128 118c50-8 100-6 146 2l-22 210c-4 20-22 30-52 30s-48-10-52-30z" style="fill:var(--card,#FFFDF9)"></path>
      <path d="M120 176c54-8 108-6 160 4l-8 76c-52 8-104 6-154-2z" fill="#E2D3BC"></path>
      <path d="M120 176c54-8 108-6 160 4l-8 76c-52 8-104 6-154-2z" fill="url(#hs5)"></path>
      <path d="M116 108c56-14 118-12 170 2l2 22c-58 8-116 8-174 0z" fill="#F1E8DA"></path>
      <path d="M232 62c28-6 56-4 80 4l-10 100c-26 8-54 8-80 2z" style="fill:var(--card,#FFFDF9)"></path>
    </g>
    <g fill="none" stroke-width="5" stroke-linecap="round" stroke-linejoin="round" style="stroke:var(--ink,#241A13)">
      <path d="M112 106c58-14 120-12 176 2"></path>
      <path d="M114 110l4 20c56 8 114 8 172-2l4-20"></path>
      <path d="M126 132l20 202c2 20 22 30 54 30s50-10 54-30l20-206"></path>
      <path d="M118 176c56-8 110-6 164 4M118 182l4 74c52 8 104 8 154-2l4-74"></path>
      <path d="M228 60c28-8 58-6 84 4l-12 102c-26 8-54 8-80 2"></path>
      <path d="M244 84h44M244 100h32M244 116h40" stroke-width="3" opacity=".45"></path>
      <path d="M260 136l10 12 24-30" style="stroke:var(--acc,#C2593A)" stroke-width="6"></path>
    </g>
    <path d="M146 214c8-12 16-6 20 4 6 14 14 6 20-4 6-10 14-6 18 6 4 12 14 8 20-4" fill="none" style="stroke:var(--acc,#C2593A)" stroke-width="4" stroke-linecap="round"></path>
    <g stroke="#A08F7D" stroke-width="2.2" stroke-linecap="round" style="opacity:var(--hatch-op,.5)">
      <path d="M138 196l12-12M140 216l14-14M144 236l14-14"></path>
      <path d="M150 300l12-12M154 320l14-14M164 336l12-12"></path>
    </g>
    <g>
      <path d="M88 78l-18-10M84 110l-20 2M96 52l-8-16" stroke="#BE7008" stroke-width="4.5" stroke-linecap="round"></path>
    </g>
    <g>
      <path d="M336 200l18-8M338 228l20 4" stroke="#BE7008" stroke-width="4.5" stroke-linecap="round"></path>
    </g>
  </g>
</svg>
