<svg xmlns="http://www.w3.org/2000/svg" width="48" height="48" viewBox="0 0 48 48" fill="none" role="img" aria-label="barako pot">
  <ellipse cx="24" cy="41" rx="12.5" ry="2.6" fill="#DBC5A4"/>
  <path d="M33 25c5 0 5 7 0 7" stroke="#9E4025" stroke-width="3.4" stroke-linecap="round" fill="none"/>
  <path d="M12.6 24.6c-3.2 1-3.2 6.4 0 7.4l2.4-.8v-5.8z" fill="#C2593A"/>
  <path d="M15 22h18v9a9 9 0 0 1-18 0z" fill="#C2593A"/>
  <ellipse cx="24" cy="22" rx="9" ry="3" fill="#9E4025"/>
  <ellipse cx="24" cy="19.6" rx="7.6" ry="2.6" fill="#D9714D"/>
  <circle cx="24" cy="16.4" r="1.9" fill="#9E4025"/>
  <g stroke="#D6A164" stroke-width="2" stroke-linecap="round">
    <path d="M20.4 8.4c-1.4 1.8 1.4 2.8 0 4.6"/>
    <path d="M27.6 8.4c-1.4 1.8 1.4 2.8 0 4.6"/>
  </g>
</svg>
