<svg xmlns="http://www.w3.org/2000/svg" width="48" height="48" viewBox="0 0 48 48" fill="none" role="img" aria-label="buko pandan">
  <ellipse cx="24" cy="42" rx="10" ry="2.2" fill="#DBC5A4"/>
  <path d="M16.4 19h15.2l-1.4 19.4a3 3 0 0 1-3 2.6h-6.4a3 3 0 0 1-3-2.6z" fill="#CBDCE3"/>
  <path d="M17.1 23.6h13.8l-1.1 14.8a2.7 2.7 0 0 1-2.7 2.4h-6.2a2.7 2.7 0 0 1-2.7-2.4z" fill="#A8C486"/>
  <g fill="#F4E8D6">
    <rect x="18.8" y="27" width="7.2" height="2.4" rx="1.2" transform="rotate(-10 22.4 28.2)"/>
    <rect x="22.2" y="32" width="6.6" height="2.4" rx="1.2" transform="rotate(12 25.5 33.2)"/>
  </g>
  <path d="M29.4 19.4c3.8-1.6 5.8-4.6 6-8-3.8 1.6-5.8 4.6-6 8z" fill="#6E8B5E"/>
</svg>
