<svg xmlns="http://www.w3.org/2000/svg" width="48" height="48" viewBox="0 0 48 48" fill="none" aria-label="coffee cup to go">
  <path d="M15 15h18l-2.4 22.5a3 3 0 0 1-3 2.7h-7.2a3 3 0 0 1-3-2.7z" fill="#C79A6B"/>
  <path d="M17 26h14l-1 11.2a3 3 0 0 1-3 2.7h-6a3 3 0 0 1-3-2.7z" fill="#B78753"/>
  <rect x="16" y="25" width="16" height="5" rx="1.4" fill="#D8654F"/>
  <path d="M13.5 12.5h21l-.6 4.2a1.6 1.6 0 0 1-1.6 1.4H15.7a1.6 1.6 0 0 1-1.6-1.4z" fill="#E9E0D2"/>
  <path d="M14 11.5h20a1.5 1.5 0 0 1 1.5 1.5H12.5a1.5 1.5 0 0 1 1.5-1.5z" fill="#F2ECE1"/>
  <g stroke="#CBB9A9" stroke-width="2" stroke-linecap="round">
    <path d="M21 4c-1.3 1.7 1.3 2.6 0 4.3"/>
    <path d="M27 4c-1.3 1.7 1.3 2.6 0 4.3"/>
  </g>
</svg>
