<svg xmlns="http://www.w3.org/2000/svg" width="48" height="48" viewBox="0 0 48 48" fill="none" aria-label="latte">
  <ellipse cx="24" cy="41" rx="12" ry="2.8" fill="#D9C6A6"/>
  <path d="M15 13h18l-2 26a3 3 0 0 1-3 2.6H20a3 3 0 0 1-3-2.6z" fill="#FBF3E4"/>
  <path d="M16.4 22h15.2l-1.2 15.5a2.5 2.5 0 0 1-2.5 2.3h-7.8a2.5 2.5 0 0 1-2.5-2.3z" fill="#6B4326"/>
  <path d="M15.7 16h16.6l-.5 6.5H16.2z" fill="#C98F5A"/>
  <path d="M15 13h18l-.35 4.5H15.35z" fill="#F3E4C8"/>
  <path d="M24 25.5c1.2-1.6 4-.6 4 1.4 0 1.7-2.4 3.3-4 4.6-1.6-1.3-4-2.9-4-4.6 0-2 2.8-3 4-1.4z" fill="#F3E4C8"/>
</svg>
