<svg xmlns="http://www.w3.org/2000/svg" width="48" height="48" viewBox="0 0 48 48" fill="none" role="img" aria-label="halo halo">
  <ellipse cx="24" cy="42" rx="10.5" ry="2.2" fill="#DBC5A4"/>
  <path d="M32.4 6.6 29.4 20.4" stroke="#A7B3BA" stroke-width="2.6" stroke-linecap="round"/>
  <path d="M15.4 17h17.2l-1.8 21.4a3 3 0 0 1-3 2.8h-7.6a3 3 0 0 1-3-2.8z" fill="#CBDCE3"/>
  <path d="M16.4 30h15.2l-.7 8.4a2.7 2.7 0 0 1-2.7 2.5h-8.4a2.7 2.7 0 0 1-2.7-2.5z" fill="#8E6BA8"/>
  <path d="M16 24.6h16l-.5 5.6H16.5z" fill="#DE7286"/>
  <path d="M15.6 19.4h16.8l-.4 5.2H16z" fill="#F5E9D6"/>
  <path d="M16.2 17.6a7.8 7.8 0 0 1 15.6 0z" fill="#B392C9"/>
  <path d="M17.4 8.4 20.6 19.4" stroke="#C2593A" stroke-width="3.2" stroke-linecap="round"/>
</svg>
